<svg xmlns="http://www.w3.org/2000/svg" viewBox="0 0 1200 800" role="img" aria-labelledby="title desc">
  <title id="title">Banking data system demo</title><desc id="desc">A composed data warehouse, KPI, and financial flow visualization.</desc>
  <defs><linearGradient id="bg" x2="1" y2="1"><stop stop-color="#101722"/><stop offset="1" stop-color="#07090d"/></linearGradient><filter id="grain"><feTurbulence baseFrequency=".8" numOctaves="2" seed="8"/><feColorMatrix values="1 0 0 0 0 0 1 0 0 0 0 0 1 0 0 0 0 0 .08 0"/></filter></defs>
  <rect width="1200" height="800" fill="url(#bg)"/>
  <g stroke="#a9b5c9" stroke-opacity=".14"><path d="M0 96h1200M0 208h1200M0 320h1200M0 432h1200M0 544h1200M0 656h1200"/><path d="M120 0v800M300 0v800M480 0v800M660 0v800M840 0v800M1020 0v800"/></g>
  <g font-family="monospace" font-size="14" letter-spacing="2" fill="#7f8998"><text x="66" y="62">BANKING DATA SYSTEM / DEMO</text><text x="1035" y="62">2025—NOW</text></g>
  <g transform="translate(66 124)">
    <rect width="278" height="182" fill="#151c28" stroke="#9cafcc" stroke-opacity=".28"/>
    <text x="24" y="34" font-family="sans-serif" font-size="13" fill="#9ca6b4">TRUSTED BALANCE</text><text x="24" y="90" font-family="serif" font-size="48" fill="#ede9df">98.7%</text>
    <path d="M24 143C63 135 83 151 117 128S169 116 196 95s38-14 56-32" fill="none" stroke="#8fa8d4" stroke-width="2"/>
  </g>
  <g transform="translate(374 124)">
    <rect width="760" height="182" fill="#0c1119" stroke="#9cafcc" stroke-opacity=".18"/>
    <g font-family="monospace" font-size="12" fill="#788291"><text x="25" y="32">PIPELINE HEALTH / 24H</text><text x="650" y="32">12 SOURCES</text></g>
    <g fill="#8fa8d4"><rect x="25" y="116" width="32" height="32" opacity=".32"/><rect x="67" y="92" width="32" height="56" opacity=".45"/><rect x="109" y="73" width="32" height="75" opacity=".6"/><rect x="151" y="97" width="32" height="51" opacity=".4"/><rect x="193" y="56" width="32" height="92" opacity=".82"/></g>
    <path d="M263 135L331 96l71 15 75-54 69 26 82-44 86 23" fill="none" stroke="#c6a16b" stroke-width="2"/>
    <g fill="#c6a16b"><circle cx="331" cy="96" r="4"/><circle cx="477" cy="57" r="4"/><circle cx="628" cy="39" r="4"/></g>
  </g>
  <g transform="translate(66 342)">
    <rect width="1068" height="390" fill="#0b1017" stroke="#9cafcc" stroke-opacity=".18"/>
    <text x="24" y="35" font-family="monospace" font-size="12" letter-spacing="2" fill="#788291">MODEL LINEAGE / FINANCIAL REPORTING</text>
    <g stroke="#8296b5" stroke-opacity=".34" fill="#111925">
      <rect x="42" y="102" width="180" height="64"/><rect x="42" y="221" width="180" height="64"/><rect x="332" y="161" width="190" height="68"/><rect x="635" y="92" width="180" height="64"/><rect x="635" y="231" width="180" height="64"/><rect x="908" y="161" width="118" height="68"/>
      <path d="M222 134h76c22 0 22 61 34 61M222 253h76c22 0 22-58 34-58M522 195h55c30 0 30-71 58-71M522 195h55c30 0 30 70 58 70M815 124h45c27 0 27 71 48 71M815 263h45c27 0 27-68 48-68" fill="none"/>
    </g>
    <g font-family="monospace" font-size="12" fill="#c5cad1"><text x="66" y="140">CORE BANKING</text><text x="66" y="259">PAYMENTS</text><text x="368" y="201">WAREHOUSE</text><text x="670" y="130">FINANCE MART</text><text x="670" y="269">RISK MART</text><text x="932" y="201">BI</text></g>
  </g>
  <rect width="1200" height="800" filter="url(#grain)"/>
</svg>
